<?xml version="1.0" encoding="UTF-8"?>
<svg width="28px" height="28px" viewBox="0 0 28 28" version="1.1" xmlns="http://www.w3.org/2000/svg" xmlns:xlink="http://www.w3.org/1999/xlink">
    <!-- Generator: Sketch 50.2 (55047) - http://www.bohemiancoding.com/sketch -->
    <title>close</title>
    <desc>Created with Sketch.</desc>
    <defs></defs>
    <g id="Page-1" stroke="none" stroke-width="1" fill="none" fill-rule="evenodd">
        <g id="Pixel" transform="translate(-399.000000, -316.000000)" fill="#FFFFFF">
            <path d="M425.585,317.415 L425.585,317.415 C424.803517,316.633517 423.536483,316.633517 422.755,317.415 L413,327.17 L403.245,317.415 C402.463517,316.633517 401.196483,316.633517 400.415,317.415 L400.415,317.415 C399.633517,318.196483 399.633517,319.463517 400.415,320.245 L410.17,330 L400.415,339.755 C399.633517,340.536483 399.633517,341.803517 400.415,342.585 L400.415,342.585 C401.196483,343.366483 402.463517,343.366483 403.245,342.585 L413,332.83 L422.755,342.585 C423.536483,343.366483 424.803517,343.366483 425.585,342.585 L425.585,342.585 C426.366483,341.803517 426.366483,340.536483 425.585,339.755 L415.83,330 L425.585,320.245 C426.366483,319.463517 426.366483,318.196483 425.585,317.415 Z" id="close"></path>
        </g>
    </g>
</svg>