<?xml version="1.0" encoding="UTF-8"?>
<svg width="359px" height="350px" viewBox="0 0 359 350" version="1.1" xmlns="http://www.w3.org/2000/svg" xmlns:xlink="http://www.w3.org/1999/xlink">
    <!-- Generator: Sketch 50.2 (55047) - http://www.bohemiancoding.com/sketch -->
    <title>Logo</title>
    <desc>Created with Sketch.</desc>
    <defs></defs>
    <g id="Page-1" stroke="none" stroke-width="1" fill="none" fill-rule="evenodd">
        <g id="Logo" transform="translate(4.000000, 5.000000)">
            <g id="malamute" transform="translate(75.000000, 103.000000)" fill="#6BF7FF" fill-rule="nonzero">
                <path d="M200.437746,12.8231511 C199.032457,6.66333855 194.340264,1.924905 188.193386,0.458211027 C182.056084,-1.00646894 175.738333,1.09765536 171.704932,5.9483693 L138.997186,45.2872868 C135.056531,44.089965 130.936937,43.4590802 126.781557,43.4590802 L78.2184432,43.4590802 C74.0630625,43.4590802 69.9439734,44.089965 66.0028136,45.2872868 L33.2950682,5.9483693 C29.2616673,1.09765536 22.943412,-1.00646894 16.8066144,0.458211027 C10.6597357,1.924905 5.96754274,6.66333855 4.56225388,12.8231511 C1.0918759,28.0328633 -0.410694432,42.4435217 0.0958749023,55.6548444 C0.770292584,73.2435916 5.0511815,88.2433444 12.8069848,100.290576 C11.9490933,103.783856 11.5272042,107.391429 11.5927306,111.023171 L12.6305677,168.755428 C12.8785598,182.554838 19.8848421,195.371417 31.373129,203.039714 L79.0586931,234.870951 C86.1788905,239.623482 94.3394452,242 102.5,242 C110.660555,242 118.82111,239.623482 125.941307,234.870951 L173.626871,203.039714 C185.115158,195.371417 192.12144,182.554838 192.369432,168.755428 L193.407269,111.023171 C193.472796,107.391429 193.050907,103.783856 192.193015,100.290576 C199.948819,88.2428409 204.229707,73.2435916 204.904125,55.6548444 C205.410694,42.4435217 203.908124,28.0328633 200.437746,12.8231511 Z M154.172592,41.220018 L154.172592,53.5673356 C152.152364,51.8493954 149.976384,50.3323515 147.68044,49.0282878 L154.172592,41.220018 Z M150.317625,62.329737 L174.759469,86.9926517 C181.005142,93.2949547 184.495682,101.994419 184.336402,110.860541 L184.091938,124.469125 C179.677476,120.033798 173.913171,116.927206 167.404889,115.788794 L159.64707,114.429345 C154.077327,113.453563 149.523244,109.303217 148.044868,103.85636 L144.647577,91.3292927 C142.600633,83.7828426 136.547004,78.2186699 128.848158,76.8083679 C121.165442,75.4005833 113.544724,78.4412167 108.947796,84.7445266 L107.036946,87.266052 L107.036946,52.5215672 L126.782061,52.5215672 C135.561588,52.5220707 144.139999,56.096917 150.317625,62.329737 Z M145.482786,119.288115 L144.63548,120.647564 C143.407616,122.618261 141.484669,123.993318 139.221488,124.518971 C136.958308,125.045632 134.625569,124.658944 132.652217,123.432419 L131.291284,122.586037 C133.181972,120.934558 135.461282,119.761908 137.976991,119.176842 C140.4927,118.592279 143.056798,118.639608 145.482786,119.288115 Z M102.5,165.077868 C98.8325388,165.077868 95.8490723,162.460174 95.8490723,159.242309 C95.8490723,158.054554 96.4972794,155.291348 102.5,155.291348 C108.502721,155.291348 109.150424,158.05405 109.150424,159.242309 C109.150928,162.460174 106.167461,165.077868 102.5,165.077868 Z M102.5,187.046053 L110.440789,194.978184 C108.058653,196.340654 105.34939,197.063679 102.5,197.063679 C99.6506105,197.063679 96.9413466,196.340654 94.5592106,194.978184 L102.5,187.046053 Z M117.132545,188.846064 L107.036442,178.760969 L107.036442,173.505945 C113.501375,171.656592 118.223307,165.96302 118.223307,159.242309 C118.223307,151.45871 111.904548,146.228358 102.5,146.228358 C93.094948,146.228358 86.7761887,151.458207 86.7761887,159.242309 C86.7761887,165.96302 91.4986246,171.656592 97.9635582,173.505945 L97.9635582,178.760466 L87.8674549,188.84556 C83.3360536,193.371517 75.9633276,193.371517 71.4329344,188.84556 C66.346071,183.76374 65.5753799,175.75256 69.60122,169.796665 L80.3752693,153.855871 C85.4202966,146.391492 93.484578,142.110739 102.500504,142.110739 C111.515926,142.110739 119.580207,146.391492 124.625235,153.855871 L135.399284,169.796665 C139.42462,175.753064 138.654433,183.764244 133.567066,188.84556 C129.036168,193.371517 121.663442,193.371517 117.132545,188.846064 Z M97.9635582,52.5220707 L97.9635582,87.2665555 L96.0527081,84.7450301 C91.4557804,78.4417202 83.8355663,75.4010868 76.152346,76.8088714 C68.4535002,78.2191734 62.3993666,83.7833461 60.3529273,91.3297962 L56.9556365,103.85636 C55.4772605,109.30372 50.923177,113.454067 45.3529305,114.429849 L37.5971271,115.788794 C31.0878372,116.927206 25.3230278,120.033798 20.9085658,124.469125 L20.664102,110.860541 C20.5048225,101.994419 23.9953625,93.2944512 30.2410347,86.9926517 L54.6828791,62.329737 C60.8600007,56.096917 69.4384121,52.5220707 78.2184432,52.5220707 L97.9635582,52.5220707 Z M67.0230089,119.176842 C69.5387179,119.761405 71.8180279,120.934055 73.708716,122.586037 L72.3477835,123.432419 C70.3749354,124.659447 68.0432043,125.045128 65.7785117,124.518971 C63.5153313,123.993318 61.592384,122.618261 60.3645204,120.647564 L59.5172139,119.288115 C61.9432022,118.639608 64.507804,118.592279 67.0230089,119.176842 Z M50.8274076,53.5673356 L50.8274076,41.220018 L57.3195599,49.0282878 C55.0241203,50.332855 52.8476364,51.8493954 50.8274076,53.5673356 Z M9.16220587,55.3084368 C8.68587948,42.8896223 10.1148586,29.273486 13.4083154,14.8376525 C14.0504739,12.0230905 16.1090104,9.94313413 18.9150517,9.27347983 C21.7105079,8.60583953 24.4772334,9.52825056 26.3160045,11.7391168 L41.7550281,30.3081774 L41.7550281,62.4928708 L23.7932388,80.6173414 C21.1600863,83.2743081 18.9205962,86.271137 17.0979547,89.4940371 C12.3356989,79.8983441 9.66575091,68.4452416 9.16220587,55.3084368 Z M168.58638,195.504845 L120.900816,227.336081 C109.723023,234.79744 95.2774806,234.796937 84.100192,227.336081 L36.414628,195.504845 C27.3971898,189.485508 21.8970061,179.425085 21.7024432,168.593301 L21.2407342,142.917345 C22.6984442,133.63785 29.8594696,126.343653 39.1642158,124.716343 L46.9215312,123.356894 C48.2320589,123.127299 49.506799,122.785926 50.7376869,122.348385 L52.6626504,125.437354 C55.1718067,129.463336 59.0998613,132.271856 63.7235036,133.346827 C65.0723389,133.660508 66.4327674,133.815082 67.7846271,133.815082 C71.0654826,133.815082 74.2893806,132.901734 77.1433065,131.126898 L82.9247496,127.531912 C83.945953,126.896496 84.6732959,125.882448 84.9459864,124.711811 C85.218677,123.541175 85.0145371,122.310119 84.3789312,121.290029 C80.9085532,115.721828 75.4754081,111.836826 69.0800332,110.350496 C67.5441957,109.993515 65.996765,109.789094 64.4548788,109.726157 C64.9614481,108.603856 65.3858575,107.436241 65.7139934,106.227339 L69.1112843,93.7002717 C70.2524514,89.4920231 73.4970154,86.5102992 77.7900015,85.7238331 C82.0839957,84.9368634 86.1758662,86.5752507 88.7374437,90.104782 C88.7555894,90.129957 88.7742393,90.1551319 88.7928891,90.1798034 L97.9645663,102.284434 L97.9645663,133.336757 C87.8256189,134.62622 78.6615024,140.196434 72.856369,148.785128 L62.0823197,164.725922 C55.6304914,174.271768 56.8654117,187.111005 65.0184057,195.254605 C70.7675896,200.99752 79.0843996,202.644971 86.3109514,200.203502 C90.8126138,203.994853 96.5527248,206.127173 102.501008,206.127173 C108.449291,206.127173 114.189402,203.994853 118.691065,200.202998 C120.846379,200.931058 123.09847,201.299116 125.351065,201.299116 C130.650134,201.299116 135.949202,199.284615 139.983611,195.254605 C148.136605,187.110501 149.371525,174.271265 142.919696,164.725922 L132.145647,148.785128 C126.341018,140.196434 117.176397,134.62622 107.037954,133.336757 L107.037954,102.283931 L116.209631,90.1792999 C116.228281,90.1546284 116.246931,90.1294535 116.265077,90.1042785 C118.826654,86.5747472 122.918525,84.9363599 127.212519,85.7233296 C131.505505,86.5097957 134.750069,89.4915196 135.891236,93.6997682 L139.289031,106.227339 C139.617167,107.435737 140.041576,108.603353 140.547641,109.725653 C139.005755,109.788087 137.458829,109.992508 135.922487,110.349992 C129.527112,111.836323 124.093967,115.721325 120.623589,121.289525 C119.987983,122.309615 119.783843,123.540672 120.056534,124.711308 C120.329224,125.881944 121.056063,126.895992 122.077771,127.531408 L127.859214,131.126395 C130.713644,132.90123 133.937038,133.814578 137.217893,133.814578 C138.568745,133.814578 139.930181,133.659501 141.279017,133.346324 C145.902659,132.271856 149.830714,129.462832 152.33987,125.436851 L154.264833,122.347881 C155.495721,122.785422 156.770461,123.126795 158.080989,123.356391 L165.839817,124.715839 C175.143051,126.342646 182.304076,133.636843 183.761786,142.916338 L183.300077,168.592294 C183.104002,179.425085 177.603818,189.485508 168.58638,195.504845 Z M195.838298,55.3084368 C195.334249,68.4452416 192.664301,79.8983441 187.902549,89.4940371 C186.079404,86.271137 183.840418,83.2743081 181.207265,80.6173414 L163.245476,62.4928708 L163.245476,30.3081774 L178.6845,11.7391168 C180.523271,9.52774706 183.2905,8.60583953 186.085452,9.27347983 C188.891494,9.94313413 190.95003,12.0230905 191.592189,14.8376525 C194.885645,29.2729825 196.314625,42.8896223 195.838298,55.3084368 Z" id="Shape"></path>
            </g>
            <polyline id="Path-2" stroke="#6BF7FF" stroke-width="6" stroke-linecap="round" points="244.070408 83.3007033 177.162491 0.523689073 110.254575 83.3007033"></polyline>
            <polyline id="Path-3" stroke="#6BF7FF" stroke-width="6" stroke-linecap="round" points="39.0866799 177.656044 0.597059887 228.000141 39.0866799 266.481074"></polyline>
            <polyline id="Path-3" stroke="#6BF7FF" stroke-width="6" stroke-linecap="round" transform="translate(330.841870, 222.068559) scale(-1, 1) translate(-330.841870, -222.068559) " points="350.08668 177.656044 311.59706 228.000141 350.08668 266.481074"></polyline>
        </g>
    </g>
</svg>