<?xml version="1.0" encoding="UTF-8"?>
<svg width="16px" height="16px" viewBox="0 0 16 16" version="1.1" xmlns="http://www.w3.org/2000/svg" xmlns:xlink="http://www.w3.org/1999/xlink">
    <!-- Generator: Sketch 50.2 (55047) - http://www.bohemiancoding.com/sketch -->
    <title>Fill 1</title>
    <desc>Created with Sketch.</desc>
    <defs></defs>
    <g id="Page-1" stroke="none" stroke-width="1" fill="none" fill-rule="evenodd">
        <g id="Pixel" transform="translate(-62.000000, -125.000000)" fill="#FFFFFF">
            <path d="M73.4351058,135.062893 L72.707833,135.062893 L72.4562607,134.811321 C73.352773,133.773013 73.89251,132.423671 73.89251,130.946255 C73.89251,127.662093 71.2304174,125 67.946255,125 C64.6620926,125 62,127.662093 62,130.946255 C62,134.230417 64.6620926,136.89251 67.946255,136.89251 C69.4236707,136.89251 70.7730132,136.352773 71.8113208,135.460835 L72.0628931,135.712407 L72.0628931,136.435106 L76.6369354,141 L78,139.636935 L73.4351058,135.062893 Z M67.946255,135.062893 C65.672956,135.062893 63.8296169,133.219554 63.8296169,130.946255 C63.8296169,128.672956 65.672956,126.829617 67.946255,126.829617 C70.219554,126.829617 72.0628931,128.672956 72.0628931,130.946255 C72.0628931,133.219554 70.219554,135.062893 67.946255,135.062893 Z" id="Fill-1"></path>
        </g>
    </g>
</svg>